<?xml version="1.0" standalone="no"?><svg xmlns="http://www.w3.org/2000/svg" viewBox="0 0 1440 320"><path fill="#00cba9" fill-opacity="1" d="M0,192L21.8,160C43.6,128,87,64,131,80C174.5,96,218,192,262,208C305.5,224,349,160,393,149.3C436.4,139,480,181,524,186.7C567.3,192,611,160,655,122.7C698.2,85,742,43,785,37.3C829.1,32,873,64,916,112C960,160,1004,224,1047,218.7C1090.9,213,1135,139,1178,96C1221.8,53,1265,43,1309,74.7C1352.7,107,1396,181,1418,218.7L1440,256L1440,0L1418.2,0C1396.4,0,1353,0,1309,0C1265.5,0,1222,0,1178,0C1134.5,0,1091,0,1047,0C1003.6,0,960,0,916,0C872.7,0,829,0,785,0C741.8,0,698,0,655,0C610.9,0,567,0,524,0C480,0,436,0,393,0C349.1,0,305,0,262,0C218.2,0,175,0,131,0C87.3,0,44,0,22,0L0,0Z"></path></svg>